<svg version="1" xmlns="http://www.w3.org/2000/svg" width="568" height="568" viewBox="0 0 426.000000 426.000000"><path d="M273.3 52.8c-1.3.2-2.3.9-2.4 1.5-.4 6.2.1 319 .5 319.4.4.4 144.9.8 152.6.4 1.3-.1 1.5-1.4 1.4-6.9-.1-3.7-.2-6.9-.3-7.2 0-.3-30-.5-66.6-.5-65.9 0-66.5 0-66.6-2 0-1.1-.1-70.1-.1-153.3L291.7 53l-2.1-.1c-8-.3-14.4-.4-16.3-.1zM207.5 127l-5 .5v122.9c0 115.1.1 122.9 1.7 123.5 1.5.5 7.6.6 17.4.2l2.1-.1V250.5l.1-123.5-2.2-.1c-1.1 0-3.7-.1-5.6-.2-1.9-.1-5.8 0-8.5.3zM134.5 282c0 50.9-.3 77.1-1 77.3-.5.2-30.6.3-66.7.2H1l-.1 2.2c-.1 2.9-.1 8.8 0 11 .1 1.7 4.4 1.8 76.6 1.7 42.1-.1 76.9-.4 77.3-.8.4-.4.7-38.5.7-84.7V205h-21v77z"/></svg>